PathFileType	4	(X/Y/Z)	/Users/itak/Documents/Research/Walk-IL/dataset/trc/00139_00007.trc
DataRate	CameraRate	NumFrames	NumMarkers	Units	OrigDataRate	OrigDataStartFrame	OrigNumFrames
100.000000	100.000000	4	53	mm	100.000000	273	547
Frame#	Time	RPSI			LPSI			L3			STRN			T10			C7			CLAV			RBAK			LBAK			LSHO			LUPA			LAEL			LAOL			LWTS			LWPS			LFRA			LIFD			LHPS			LHTS			RSHO			RUPA			RAEL			RAOL			RWTS			RWPS			RFRA			RIFD			RHTS			RHPS			RBHD			LFHD			RFHD			LBHD			LHIP			RHIP			RASI			LASI			LKNE			LTHI			LANK			LTIP			LTOE			LMT1			LMT5			LHEE			RKNE			RTHI			RANK			RTIP			RTOE			RMT1			RMT5			RHEE			
		X1	Y1	Z1	X2	Y2	Z2	X3	Y3	Z3	X4	Y4	Z4	X5	Y5	Z5	X6	Y6	Z6	X7	Y7	Z7	X8	Y8	Z8	X9	Y9	Z9	X10	Y10	Z10	X11	Y11	Z11	X12	Y12	Z12	X13	Y13	Z13	X14	Y14	Z14	X15	Y15	Z15	X16	Y16	Z16	X17	Y17	Z17	X18	Y18	Z18	X19	Y19	Z19	X20	Y20	Z20	X21	Y21	Z21	X22	Y22	Z22	X23	Y23	Z23	X24	Y24	Z24	X25	Y25	Z25	X26	Y26	Z26	X27	Y27	Z27	X28	Y28	Z28	X29	Y29	Z29	X30	Y30	Z30	X31	Y31	Z31	X32	Y32	Z32	X33	Y33	Z33	X34	Y34	Z34	X35	Y35	Z35	X36	Y36	Z36	X37	Y37	Z37	X38	Y38	Z38	X39	Y39	Z39	X40	Y40	Z40	X41	Y41	Z41	X42	Y42	Z42	X43	Y43	Z43	X44	Y44	Z44	X45	Y45	Z45	X46	Y46	Z46	X47	Y47	Z47	X48	Y48	Z48	X49	Y49	Z49	X50	Y50	Z50	X51	Y51	Z51	X52	Y52	Z52	X53	Y53	Z53	

274	2.73	-66.82609558105469	1112.952026367188	1142.473022460938	-104.7051162719727	1119.47216796875	1013.004089355469	-92.18787384033203	1153.723022460938	1075.44921875	124.5845642089844	1348.033569335938	1009.402221679688	-122.9454650878906	1308.639404296875	1078.847778320312	-78.31558227539062	1598.890014648438	1044.145629882812	95.16266632080078	1484.412353515625	1011.130859375	-115.4184265136719	1419.17529296875	1149.39453125	-110.8647918701172	1577.194091796875	947.0001220703125	-42.92190933227539	1558.078979492188	862.543701171875	-71.50435638427734	1428.129760742188	796.1228637695312	-32.146240234375	1214.517944335938	756.681640625	-81.67214965820312	1187.012084960938	824.5808715820312	139.4062652587891	995.859130859375	763.8306274414062	66.22480010986328	946.865478515625	751.3169555664062	10.60155582427979	1105.787719726562	742.066650390625	216.6110687255859	816.1787719726562	757.5836791992188	114.7276229858398	885.0252075195312	738.6755981445312	176.7874145507812	917.0127563476562	744.6583251953125	20.2237606048584	1582.277587890625	1205.978637695312	15.98273277282715	1512.569213867188	1275.456176757812	1.322658538818359	1220.772338867188	1314.923828125	-29.10525512695312	1215.000122070312	1221.195678710938	133.0520935058594	973.2218627929688	1278.116821289062	68.90513610839844	959.9844360351562	1328.447021484375	26.46305274963379	1147.240112304688	1328.081298828125	158.304931640625	778.5604858398438	1272.269775390625	162.8484344482422	866.8567504882812	1283.895874023438	105.4986724853516	860.7359619140625	1327.7109375	7.787778377532959	1773.695678710938	1106.621337890625	73.09172058105469	1820.996948242188	899.4125366210938	140.9231262207031	1841.55078125	1009.240356445312	-70.11808776855469	1756.983764648438	997.1345825195312	-54.7298698425293	1030.757934570312	878.4722900390625	95.73910522460938	1020.092468261719	1214.458251953125	150.1759643554688	1092.401733398438	1137.988403320312	64.39795684814453	1090.513671875	886.8758544921875	-38.87768936157227	527.5048217773438	963.2310180664062	-60.61112976074219	671.8025512695312	924.161376953125	-157.9071044921875	40.05302429199219	1079.330200195312	-150.3925323486328	286.7588195800781	1003.855834960938	76.14242553710938	45.84899520874023	1106.674438476562	1.60486102104187	54.90520095825195	1150.8369140625	-36.30606842041016	37.4774055480957	1038.972045898438	-218.3159027099609	49.64811325073242	1149.236938476562	256.8502807617188	568.347412109375	1119.826293945312	177.2875518798828	828.1000366210938	1182.998657226562	266.2375793457031	41.12090301513672	1150.92041015625	268.7160949707031	432.80517578125	1140.321411132812	437.344970703125	103.5219345092773	1011.355529785156	372.2958374023438	76.75107574462891	993.6976318359375	390.8065185546875	66.50232696533203	1112.8974609375	192.7907867431641	31.80296897888184	1130.873413085938	
275	2.74	-58.12871170043945	1111.943725585938	1140.372680664062	-97.21626281738281	1118.200927734375	1011.259155273438	-84.07365417480469	1152.483642578125	1073.573364257812	131.8004455566406	1346.777465820312	1005.923889160156	-115.0670928955078	1307.333251953125	1077.21630859375	-70.71114349365234	1597.620971679688	1042.248901367188	102.4367523193359	1483.159912109375	1007.922668457031	-107.0951766967773	1417.869506835938	1147.7451171875	-104.0804290771484	1575.9736328125	945.373779296875	-36.78484725952148	1556.854736328125	860.4224853515625	-65.77677154541016	1426.806030273438	794.3080444335938	-26.40846633911133	1213.15576171875	754.9649047851562	-75.31010437011719	1185.619995117188	823.3255004882812	146.0441436767578	995.252685546875	761.3594970703125	73.06876373291016	945.8765869140625	749.4453125	16.60218811035156	1104.525390625	740.28076171875	224.1771392822266	815.9663696289062	754.9113159179688	121.9127731323242	884.2138061523438	736.8402709960938	183.7058868408203	916.553466796875	742.0872802734375	29.12411117553711	1580.906616210938	1203.3291015625	25.31687355041504	1511.200805664062	1272.807739257812	10.66693592071533	1219.419189453125	1312.253173828125	-20.47983360290527	1213.750610351562	1218.718872070312	141.3220672607422	971.447021484375	1274.394775390625	77.59455871582031	958.4489135742188	1325.279541015625	35.69683837890625	1145.833374023438	1325.201293945312	165.7767791748047	776.6862182617188	1268.290283203125	170.8224487304688	864.9674072265625	1279.875610351562	113.8622817993164	859.0679931640625	1324.234375	15.6925802230835	1772.483642578125	1104.174926757812	80.02329254150391	1819.651245117188	896.4554443359375	148.4338531494141	1840.182373046875	1005.943115234375	-62.7110481262207	1755.738525390625	994.9764404296875	-48.31816101074219	1029.411499023438	876.287353515625	104.9933853149414	1019.299560546875	1211.651977539062	158.6896667480469	1091.359985351562	1134.339111328125	70.85530090332031	1089.140625	883.8477783203125	-33.45425796508789	526.19287109375	962.1537475585938	-54.72604370117188	670.6099243164062	922.7670288085938	-157.6305236816406	40.59914398193359	1080.158813476562	-147.2367248535156	286.4549560546875	1003.726806640625	76.61978149414062	45.03019714355469	1107.086181640625	2.105813026428223	54.11800765991211	1151.111083984375	-36.16395950317383	37.65369033813477	1039.154174804688	-217.8179168701172	50.40412139892578	1150.2685546875	263.9615478515625	567.2994384765625	1115.944458007812	185.5538482666016	826.711181640625	1179.789916992188	288.87939453125	40.34662628173828	1137.504272460938	279.7713623046875	432.2604064941406	1134.292846679688	455.7781982421875	107.9597854614258	995.3268432617188	390.9700317382812	80.18814086914062	978.8070068359375	412.133056640625	68.93759918212891	1097.3955078125	215.2275085449219	29.73567008972168	1118.754638671875	
276	2.75	-49.34347152709961	1110.825805664062	1138.256103515625	-89.62067413330078	1116.845336914062	1009.494873046875	-75.88381195068359	1151.16552734375	1071.67822265625	139.0795135498047	1345.456298828125	1002.427368164062	-107.1230087280273	1305.956909179688	1075.556030273438	-63.05063629150391	1596.28759765625	1040.32958984375	109.7787475585938	1481.839111328125	1004.712524414062	-98.77919769287109	1416.4951171875	1146.043212890625	-97.23051452636719	1574.701293945312	943.718994140625	-30.53567886352539	1555.541625976562	858.2699584960938	-59.98994445800781	1425.400024414062	792.4822998046875	-20.71560668945312	1211.67724609375	753.23974609375	-69.06913757324219	1184.163818359375	822.02392578125	152.4493560791016	994.3980102539062	758.9427490234375	79.61962127685547	944.7156372070312	747.5265502929688	22.47202110290527	1103.1181640625	738.4966430664062	231.3717803955078	815.4571533203125	752.3040161132812	128.7783660888672	883.1764526367188	735.030517578125	190.341796875	915.8252563476562	739.5758056640625	38.03376770019531	1579.438842773438	1200.675170898438	34.68830490112305	1509.70166015625	1270.12158203125	20.0306224822998	1217.925537109375	1309.487548828125	-11.77337551116943	1212.362548828125	1216.136108398438	149.7059478759766	969.5859985351562	1270.66357421875	86.34798431396484	956.7989501953125	1322.033203125	44.96012496948242	1144.292602539062	1322.238891601562	173.4530944824219	774.7430419921875	1264.363891601562	178.9413909912109	863.0111083984375	1275.899536132812	122.3200073242188	857.30322265625	1320.718383789062	23.66289329528809	1771.192626953125	1101.747802734375	87.01558685302734	1818.255981445312	893.5154418945312	155.9945831298828	1838.753662109375	1002.654113769531	-55.21977615356445	1754.395141601562	992.83203125	-41.83243179321289	1028.018920898438	874.04736328125	114.3580093383789	1018.372375488281	1208.686889648438	167.3089599609375	1090.254272460938	1130.615478515625	77.41063690185547	1087.718505859375	880.7802124023438	-27.79419898986816	524.8367919921875	961.00634765625	-48.54571533203125	669.3690795898438	921.2868041992188	-157.3314666748047	41.14372253417969	1080.912963867188	-143.9527130126953	286.1712951660156	1003.473937988281	77.10218811035156	44.23027801513672	1107.592407226562	2.553768634796143	53.42139434814453	1151.415161132812	-36.01565933227539	37.82954788208008	1039.388427734375	-217.3618621826172	51.27511215209961	1151.178344726562	271.0841064453125	566.0819091796875	1112.047729492188	193.9135437011719	825.196533203125	1176.528076171875	310.1850891113281	39.90755844116211	1124.357055664062	290.5155944824219	431.6793518066406	1128.269775390625	472.5923767089844	112.3447265625	979.4379272460938	408.0142211914062	83.6466064453125	964.1578369140625	432.013427734375	71.455078125	1082.020141601562	236.3494262695312	28.14207649230957	1107.050537109375	
277	2.76	-40.46725082397461	1109.60986328125	1136.1220703125	-81.896484375	1115.428100585938	1007.708190917969	-67.60848236083984	1149.78271484375	1069.765502929688	146.4281463623047	1344.086547851562	998.9192504882812	-99.10997009277344	1304.529052734375	1073.869384765625	-55.34018707275391	1594.905029296875	1038.386962890625	117.1819610595703	1480.462158203125	1001.501159667969	-90.47542572021484	1415.073120117188	1144.29443359375	-90.30889129638672	1573.388061523438	942.0322875976562	-24.18993759155273	1554.156494140625	856.084716796875	-54.14441680908203	1423.925415039062	790.6427001953125	-15.04832077026367	1210.100463867188	751.4990234375	-62.92482757568359	1182.653076171875	820.6690063476562	158.6295928955078	993.2922973632812	756.5772094726562	85.87146759033203	943.3839721679688	745.5579833984375	28.22408485412598	1101.582763671875	736.7069091796875	238.1735992431641	814.6373901367188	749.7598266601562	135.3016357421875	881.9208984375	733.2135620117188	196.6954040527344	914.8246459960938	737.1217651367188	46.94850158691406	1577.893920898438	1198.019653320312	44.10157012939453	1508.08740234375	1267.396850585938	29.4244499206543	1216.3037109375	1306.629516601562	-2.993243217468262	1210.854370117188	1213.45458984375	158.2091217041016	967.6542358398438	1266.91455078125	95.16751098632812	955.0487060546875	1318.704711914062	54.2681884765625	1142.6328125	1319.19189453125	181.3479766845703	772.7459716796875	1260.481811523438	187.2102813720703	861.00244140625	1271.956176757812	130.873779296875	855.4573364257812	1317.161865234375	31.71597862243652	1769.834594726562	1099.332763671875	94.06504058837891	1816.826782226562	890.592529296875	163.6044464111328	1837.285034179688	999.3731689453125	-47.64224243164062	1752.964233398438	990.7061157226562	-35.2451057434082	1026.604614257812	871.7510375976562	123.8259353637695	1017.317199707031	1205.580444335938	176.0383148193359	1089.09814453125	1126.836547851562	84.09593963623047	1086.272705078125	877.6832885742188	-21.95902442932129	523.47119140625	959.7650756835938	-42.10700988769531	668.1171264648438	919.7135009765625	-157.0185546875	41.68780136108398	1081.572021484375	-140.6188049316406	285.9502258300781	1003.091674804688	77.5589599609375	43.49161148071289	1108.147094726562	2.949530124664307	52.84378814697266	1151.721557617188	-35.87672805786133	37.98940277099609	1039.66259765625	-216.9586334228516	52.28681182861328	1151.947509765625	278.2763366699219	564.7327270507812	1108.090576171875	202.3869171142578	823.5883178710938	1173.184936523438	330.0043029785156	39.69272994995117	1111.607299804688	300.9352111816406	431.0512084960938	1122.256225585938	487.7075805664062	116.6019515991211	963.8766479492188	423.33251953125	87.06867980957031	949.9085693359375	450.3150939941406	73.92116546630859	1066.921630859375	255.9855194091797	26.91658782958984	1095.872436523438	
